<svg width="90" height="90" viewBox="0 0 90 90" fill="none" xmlns="http://www.w3.org/2000/svg">
<g clip-path="url(#clip0)">
<path d="M89.4758 33.858L45.6009 6.14242C45.2338 5.9107 44.7664 5.9107 44.3994 6.14242L0.524211 33.858C-0.000904451 34.1899 -0.15782 34.8846 0.174009 35.4098L2.51687 39.1188C2.67623 39.3709 2.92913 39.5496 3.22009 39.6152C3.51105 39.681 3.81645 39.6281 4.0686 39.469L7.33721 37.4041C7.32484 37.5408 7.31753 37.6791 7.31753 37.819C7.31753 39.2027 7.93338 40.4446 8.9045 41.2873C7.93338 42.13 7.31753 43.3718 7.31753 44.7555C7.31753 46.1393 7.93338 47.3811 8.9045 48.2238C7.93338 49.0665 7.31753 50.3083 7.31753 51.6921C7.31753 53.0758 7.93338 54.3177 8.9045 55.1604C7.93338 56.0031 7.31753 57.2449 7.31753 58.6286C7.31753 60.0124 7.93338 61.2542 8.9045 62.0969C7.93338 62.9396 7.31753 64.1814 7.31753 65.5652C7.31753 66.9489 7.93338 68.1908 8.9045 69.0335C7.93338 69.8761 7.31753 71.118 7.31753 72.5017C7.31753 73.8855 7.93338 75.1273 8.9045 75.97C7.93338 76.8127 7.31753 78.0545 7.31753 79.4383C7.31753 81.9709 9.37806 84.0314 11.9106 84.0314H78.089C80.6216 84.0314 82.6822 81.9709 82.6822 79.4383C82.6822 78.0545 82.0663 76.8127 81.0952 75.97C82.0663 75.1273 82.6822 73.8855 82.6822 72.5017C82.6822 71.118 82.0663 69.8761 81.0952 69.0335C82.0663 68.1908 82.6822 66.9489 82.6822 65.5652C82.6822 64.1814 82.0663 62.9396 81.0952 62.0969C82.0663 61.2542 82.6822 60.0124 82.6822 58.6286C82.6822 57.2449 82.0663 56.0031 81.0952 55.1604C82.0663 54.3177 82.6822 53.0758 82.6822 51.6921C82.6822 50.3083 82.0663 49.0665 81.0952 48.2238C82.0663 47.3811 82.6822 46.1393 82.6822 44.7555C82.6822 43.3718 82.0663 42.13 81.0952 41.2873C82.0663 40.4446 82.6822 39.2027 82.6822 37.819C82.6822 37.6791 82.6749 37.5408 82.6625 37.4041L85.9313 39.469C86.1126 39.5833 86.321 39.6427 86.5321 39.6427C86.6148 39.6427 86.6979 39.6336 86.7798 39.6152C87.0707 39.5496 87.3236 39.3709 87.483 39.1188L89.8259 35.4098C90.1579 34.8845 90.0012 34.1899 89.4758 33.858ZM45 14.0023C46.2923 14.0023 47.3435 15.0534 47.3435 16.3457C47.3435 17.638 46.2923 18.6891 45 18.6891C43.7078 18.6891 42.6566 17.638 42.6566 16.3457C42.6566 15.0534 43.7078 14.0023 45 14.0023ZM49.5888 16.5116L54.451 19.583H48.2546C49.045 18.7887 49.5461 17.7077 49.5888 16.5116ZM40.411 16.5118C40.4538 17.7077 40.9551 18.7889 41.7451 19.5832H35.5489L40.411 16.5118ZM31.9876 21.8327H58.0124L65.1351 26.3321H24.8649L31.9876 21.8327ZM21.3035 28.5818H68.6966L76.0484 33.2259H13.9517L21.3035 28.5818ZM62.506 81.7817H54.1147V56.7685H62.506V81.7817ZM63.6308 54.5188H52.9898C52.3687 54.5188 51.865 55.0226 51.865 55.6437V81.7817H50.3427V52.9965H66.278V81.7817H64.7557V55.6437C64.7557 55.0226 64.2521 54.5188 63.6308 54.5188ZM21.472 60.9717H15.8592C16.2681 60.2852 16.5039 59.4841 16.5039 58.6286C16.5039 57.7728 16.2681 56.9715 15.8589 56.2848H21.472V60.9717ZM21.472 63.2214V67.9082H15.8592C16.2681 67.2217 16.5039 66.4206 16.5039 65.5652C16.5039 64.7094 16.2681 63.9081 15.8589 63.2214H21.472ZM21.4771 70.1579C21.5283 70.7316 22.0099 71.1815 22.5969 71.1815H40.7819C41.3688 71.1815 41.8503 70.7316 41.9016 70.1579H48.0932V74.8448H15.8592C16.2681 74.1582 16.5039 73.3572 16.5039 72.5017C16.5039 71.6459 16.2681 70.8446 15.8589 70.1579H21.4771ZM23.7217 68.9318V52.9965H39.657V68.9318H23.7217ZM41.9067 56.2848H48.0932V60.9717H41.9067V56.2848ZM41.9067 63.2214H48.0932V67.9082H41.9067V63.2214ZM48.093 77.0945V81.7817H15.859C16.2681 81.0952 16.5039 80.2939 16.5039 79.4383C16.5039 78.5825 16.2681 77.7812 15.8589 77.0945H48.093ZM68.5277 77.0945H74.1412C73.7319 77.7812 73.4961 78.5825 73.4961 79.4383C73.4961 80.2939 73.7319 81.0952 74.141 81.7817H68.5279V77.0945H68.5277ZM68.5277 74.8448V70.1579H74.1412C73.7319 70.8446 73.4961 71.6459 73.4961 72.5017C73.4961 73.3572 73.7319 74.1582 74.1408 74.8448H68.5277ZM68.5277 67.9082V63.2214H74.1412C73.7319 63.9081 73.4961 64.7094 73.4961 65.5652C73.4961 66.4206 73.7319 67.2217 74.1408 67.9082H68.5277ZM68.5277 60.9717V56.2848H74.1412C73.7319 56.9715 73.4961 57.7728 73.4961 58.6286C73.4961 59.4841 73.7319 60.2852 74.1408 60.9717H68.5277ZM68.5277 54.0351V51.8717C68.5277 51.2506 68.0239 50.7468 67.4028 50.7468H49.2178C48.5967 50.7468 48.093 51.2506 48.093 51.8717V54.0351H41.9065V51.8717C41.9065 51.2506 41.4028 50.7468 40.7817 50.7468H22.5967C21.9756 50.7468 21.4718 51.2506 21.4718 51.8717V54.0351H15.8592C16.2681 53.3486 16.5039 52.5475 16.5039 51.6921C16.5039 50.8365 16.2681 50.0352 15.859 49.3487H74.141C73.7319 50.0352 73.4961 50.8365 73.4961 51.6921C73.4961 52.5475 73.7319 53.3486 74.1408 54.0351H68.5277ZM15.859 47.099C16.2681 46.4124 16.5039 45.6112 16.5039 44.7555C16.5039 43.8999 16.2681 43.0986 15.859 42.4121H74.141C73.7319 43.0986 73.4961 43.8999 73.4961 44.7555C73.4961 45.6112 73.7319 46.4124 74.141 47.099H15.859ZM15.859 40.1624C16.2681 39.4759 16.5039 38.6746 16.5039 37.819C16.5039 36.9634 16.2681 36.1621 15.859 35.4756H74.141C73.7319 36.1621 73.4961 36.9634 73.4961 37.819C73.4961 38.6746 73.7319 39.4759 74.141 40.1624H15.859ZM9.5674 37.819C9.5674 36.5267 10.6186 35.4756 11.9108 35.4756C13.2031 35.4756 14.2543 36.5267 14.2543 37.819C14.2543 39.1113 13.2031 40.1624 11.9108 40.1624C10.6186 40.1624 9.5674 39.1113 9.5674 37.819ZM9.5674 44.7555C9.5674 43.4633 10.6186 42.4121 11.9108 42.4121C13.2031 42.4121 14.2543 43.4633 14.2543 44.7555C14.2543 46.0478 13.2031 47.099 11.9108 47.099C10.6186 47.099 9.5674 46.0478 9.5674 44.7555ZM9.5674 51.6921C9.5674 50.3998 10.6186 49.3487 11.9108 49.3487C13.2031 49.3487 14.2543 50.3998 14.2543 51.6921C14.2543 52.9843 13.2031 54.0355 11.9108 54.0355C10.6186 54.0355 9.5674 52.9843 9.5674 51.6921ZM9.5674 58.6286C9.5674 57.3364 10.6186 56.2852 11.9108 56.2852C13.2031 56.2852 14.2543 57.3364 14.2543 58.6286C14.2543 59.9209 13.2031 60.9721 11.9108 60.9721C10.6186 60.9721 9.5674 59.9209 9.5674 58.6286ZM9.5674 65.5652C9.5674 64.2729 10.6186 63.2218 11.9108 63.2218C13.2031 63.2218 14.2543 64.2729 14.2543 65.5652C14.2543 66.8574 13.2031 67.9086 11.9108 67.9086C10.6186 67.9086 9.5674 66.8574 9.5674 65.5652ZM9.5674 72.5017C9.5674 71.2095 10.6186 70.1583 11.9108 70.1583C13.2031 70.1583 14.2543 71.2095 14.2543 72.5017C14.2543 73.794 13.2031 74.8452 11.9108 74.8452C10.6186 74.8452 9.5674 73.794 9.5674 72.5017ZM9.5674 79.4383C9.5674 78.146 10.6186 77.0948 11.9108 77.0948C13.2031 77.0948 14.2543 78.146 14.2543 79.4383C14.2543 80.7305 13.2031 81.7817 11.9108 81.7817C10.6186 81.7817 9.5674 80.7305 9.5674 79.4383ZM80.4327 79.4383C80.4327 80.7305 79.3815 81.7817 78.0892 81.7817C76.797 81.7817 75.7458 80.7305 75.7458 79.4383C75.7458 78.146 76.797 77.0948 78.0892 77.0948C79.3815 77.0948 80.4327 78.1462 80.4327 79.4383ZM80.4327 72.5017C80.4327 73.794 79.3815 74.8452 78.0892 74.8452C76.797 74.8452 75.7458 73.794 75.7458 72.5017C75.7458 71.2095 76.797 70.1583 78.0892 70.1583C79.3815 70.1583 80.4327 71.2096 80.4327 72.5017ZM80.4327 65.5652C80.4327 66.8574 79.3815 67.9086 78.0892 67.9086C76.797 67.9086 75.7458 66.8574 75.7458 65.5652C75.7458 64.2729 76.797 63.2218 78.0892 63.2218C79.3815 63.2218 80.4327 64.2731 80.4327 65.5652ZM80.4327 58.6286C80.4327 59.9209 79.3815 60.9721 78.0892 60.9721C76.797 60.9721 75.7458 59.9209 75.7458 58.6286C75.7458 57.3364 76.797 56.2852 78.0892 56.2852C79.3815 56.2852 80.4327 57.3366 80.4327 58.6286ZM80.4327 51.6921C80.4327 52.9843 79.3815 54.0355 78.0892 54.0355C76.797 54.0355 75.7458 52.9843 75.7458 51.6921C75.7458 50.3998 76.797 49.3487 78.0892 49.3487C79.3815 49.3487 80.4327 50.4 80.4327 51.6921ZM80.4327 44.7555C80.4327 46.0478 79.3815 47.099 78.0892 47.099C76.797 47.099 75.7458 46.0478 75.7458 44.7555C75.7458 43.4633 76.797 42.4121 78.0892 42.4121C79.3815 42.4121 80.4327 43.4635 80.4327 44.7555ZM75.7458 37.819C75.7458 36.5267 76.797 35.4756 78.0892 35.4756C79.3815 35.4756 80.4327 36.5267 80.4327 37.819C80.4327 39.1113 79.3815 40.1624 78.0892 40.1624C76.797 40.1624 75.7458 39.1113 75.7458 37.819ZM86.1819 36.9662L45.6009 11.3315C45.4174 11.2157 45.2087 11.1577 45 11.1577C44.7914 11.1577 44.5827 11.2157 44.3992 11.3315L3.81813 36.9662L2.67679 35.1591L45 8.42398L87.3233 35.1593L86.1819 36.9662Z" fill="black"/>
<path d="M37.0089 54.5198H26.3698C25.7487 54.5198 25.2449 55.0235 25.2449 55.6446V66.2838C25.2449 66.9049 25.7487 67.4086 26.3698 67.4086H37.0089C37.63 67.4086 38.1338 66.9049 38.1338 66.2838V55.6446C38.1338 55.0235 37.6302 54.5198 37.0089 54.5198ZM35.8841 59.7456H32.8142V56.7695H35.8841V59.7456ZM30.5645 56.7695V59.7456H27.4946V56.7695H30.5645ZM27.4946 61.9953H30.5645V65.1589H27.4946V61.9953ZM32.8142 65.1589V61.9953H35.8841V65.1589H32.8142Z" fill="black"/>
</g>
<defs>
<clipPath id="clip0">
<rect width="90" height="90" fill="white"/>
</clipPath>
</defs>
</svg>
