<svg width="170" height="58" viewBox="0 0 170 58" fill="none" xmlns="http://www.w3.org/2000/svg">
    <path fill-rule="evenodd" clip-rule="evenodd" d="M0 58H160V9H0V58Z" fill="black"/>
    <path fill-rule="evenodd" clip-rule="evenodd" d="M11 48H170V0H11V48Z" fill="#FFAB00"/>
    <path fill-rule="evenodd" clip-rule="evenodd" d="M29.3665 38.9037C26.7538 37.5061 24.7062 35.5526 23.2237 33.043C21.7412 30.5335 21 27.6858 21 24.5C21 21.3142 21.7412 18.4665 23.2237 15.957C24.7062 13.4474 26.7538 11.4939 29.3665 10.0963C31.9792 8.69877 34.9148 8 38.1733 8C41.1676 8 43.839 8.54098 46.1875 9.62295C48.536 10.7049 50.4735 12.2678 52 14.3115L45.4389 20.3074C43.5308 17.8467 41.285 16.6107 38.7017 16.6107C36.5294 16.6107 34.7827 17.3245 33.4616 18.752C32.1406 20.1796 31.4801 22.0956 31.4801 24.5C31.4801 26.9044 32.1406 28.8204 33.4616 30.248C34.7827 31.6755 36.5294 32.3893 38.7017 32.3893C41.285 32.3893 43.5308 31.1571 45.4389 28.6926L52 34.6885C50.4735 36.7322 48.536 38.2951 46.1875 39.3771C43.839 40.459 41.1676 41 38.1733 41C34.9148 41 31.9792 40.3012 29.3665 38.9037Z" fill="black"/>
    <path fill-rule="evenodd" clip-rule="evenodd" d="M88 9L75.4327 32.4548C73.9414 35.2439 72.111 37.3653 69.9487 38.8192C67.7864 40.2731 65.4079 41 62.8132 41C60.8149 41 58.7868 40.5846 56.7289 39.7538L59.1895 32.1878C60.5018 32.5438 61.5754 32.7218 62.4105 32.7218C63.186 32.7218 63.8496 32.5883 64.4013 32.3213C64.9531 32.0542 65.4825 31.6092 65.9895 30.9861L54 9H65.1395L71.3579 22.1293L77.8 9H88Z" fill="black"/>
  <mask id="mask0" mask-type="alpha" maskUnits="userSpaceOnUse" x="0" y="0" width="170" height="58">
    <path fill-rule="evenodd" clip-rule="evenodd" d="M0 58H170V0H0V58Z" fill="white"/>
  </mask>
  <g mask="url(#mask0)">
    <path fill-rule="evenodd" clip-rule="evenodd" d="M88 31H101V23H88V31Z" fill="black"/>
    <path fill-rule="evenodd" clip-rule="evenodd" d="M120 9V40H109.393V16.8829H104V9H120Z" fill="black"/>
    <path fill-rule="evenodd" clip-rule="evenodd" d="M146.545 31.0786C147.6 30.4643 148.439 29.5929 149.064 28.4643C149.688 27.3357 150 26.0143 150 24.5C150 22.9857 149.688 21.6643 149.064 20.5357C148.439 19.4071 147.6 18.5357 146.545 17.9214C145.489 17.3071 144.304 17 143 17C141.692 17 140.511 17.3071 139.455 17.9214C138.4 18.5357 137.561 19.4071 136.936 20.5357C136.312 21.6643 136 22.9857 136 24.5C136 26.0143 136.312 27.3357 136.936 28.4643C137.561 29.5929 138.4 30.4643 139.455 31.0786C140.511 31.6929 141.692 32 143 32C144.304 32 145.489 31.6929 146.545 31.0786ZM133.506 38.8811C130.848 37.4686 128.766 35.5075 127.259 32.998C125.753 30.4884 125 27.6557 125 24.5C125 21.3443 125.753 18.5116 127.259 16.002C128.766 13.4925 130.848 11.5314 133.506 10.1189C136.165 8.70628 139.162 8 142.5 8C145.838 8 148.835 8.70628 151.494 10.1189C154.152 11.5314 156.234 13.4925 157.741 16.002C159.247 18.5116 160 21.3443 160 24.5C160 27.6557 159.247 30.4884 157.741 32.998C156.234 35.5075 154.152 37.4686 151.494 38.8811C148.835 40.2937 145.838 41 142.5 41C139.162 41 136.165 40.2937 133.506 38.8811Z" fill="black"/>
  </g>
</svg>
