<svg width="48" height="52" viewBox="0 0 48 52" fill="none" xmlns="http://www.w3.org/2000/svg">
<path d="M28.0754 20.0114C28.0754 20.0114 36.4052 20.0114 37.8473 20.0114C41.8295 20.0114 44.0497 22.3915 44.0497 24.4276C44.0497 28.1358 41.9334 27.9698 41.9334 27.9698C41.9334 27.9698 46 28.0118 46 32.0119C46 36.0121 42.0174 36.0541 42.0174 36.0541C42.0174 36.0541 44.0036 36.3461 43.9696 39.4722C43.9276 42.9504 40.1091 43.3044 40.1091 43.3044C40.1091 43.3044 41.8934 43.5764 41.8934 45.9506C41.8934 48.9927 38.5118 50.0127 32.9115 50.0127C27.1453 50.0127 27.5271 50.0127 26.087 50.0127C20.3208 50.0127 16.2826 46.0126 11.9584 46.0126C9.07632 46.0126 4.20225 46.0126 4.20225 46.0126C4.20225 46.0126 2 43.2484 2 36.0121C2 28.7758 3.99228 24.0116 3.99228 24.0116C3.99228 24.0116 12.488 23.0415 16.8122 18.6993C20.8764 14.6172 23.3467 9.01091 24.0947 3.30266C24.1847 2.61863 24.6529 2.06861 25.337 2.01061C27.083 1.8666 29.5451 3.15264 29.8811 8.09486C30.2471 13.4671 28.0754 20.0114 28.0754 20.0114Z" stroke="white" stroke-width="3" stroke-miterlimit="10" stroke-linecap="round" stroke-linejoin="round"/>
</svg>
