<svg width="38" height="42" viewBox="0 0 38 42" fill="none" xmlns="http://www.w3.org/2000/svg">
<path d="M10.0639 0H1.12773C0.63448 0 0.234085 0.400313 0.234085 0.893649V32.1702C0.234085 32.6635 0.634398 33.0638 1.12773 33.0638H10.0639C10.5571 33.0638 10.9575 32.6635 10.9575 32.1702V0.893649C10.9575 0.400313 10.5571 0 10.0639 0ZM9.17024 31.2766H2.0213V1.78722H9.17024V31.2766Z" fill="#ffab00"/>
<path d="M19 4.46808H10.0638C9.57058 4.46808 9.17018 4.86839 9.17018 5.36173V41.1064C9.17018 41.5997 9.57049 42.0001 10.0638 42.0001H19C19.4932 42.0001 19.8936 41.5998 19.8936 41.1064V5.36173C19.8936 4.86839 19.4932 4.46808 19 4.46808ZM18.1063 40.2128H10.9574V6.25529H18.1063V40.2128Z" fill="#ffab00"/>
<path d="M27.9362 0H19C18.5068 0 18.1064 0.400313 18.1064 0.893649V32.1702C18.1064 32.6635 18.5067 33.0638 19 33.0638H27.9362C28.4294 33.0638 28.8298 32.6635 28.8298 32.1702V0.893649C28.8298 0.400313 28.4294 0 27.9362 0ZM27.0426 31.2766H19.8937V1.78722H27.0426V31.2766Z" fill="#ffab00"/>
<path d="M36.8723 4.46808H27.9362C27.4429 4.46808 27.0425 4.86839 27.0425 5.36173V41.1064C27.0425 41.5997 27.4428 42.0001 27.9362 42.0001H36.8723C37.3656 42.0001 37.766 41.5998 37.766 41.1064V5.36173C37.766 4.86839 37.3657 4.46808 36.8723 4.46808ZM35.9788 40.2128H28.8298V6.25529H35.9788V40.2128Z" fill="#ffab00"/>
<path d="M3.36171 2.68085C3.11504 2.68085 2.91489 2.881 2.91489 3.12767V12.0638C2.91489 12.3105 3.11504 12.5107 3.36171 12.5107C3.60838 12.5107 3.80853 12.3105 3.80853 12.0638V3.12767C3.80853 2.881 3.6083 2.68085 3.36171 2.68085Z" fill="#ffab00"/>
<path d="M5.59577 16.0851C5.3491 16.0851 5.14894 16.2852 5.14894 16.5319V21C5.14894 21.2467 5.3491 21.4468 5.59577 21.4468C5.84243 21.4468 6.04259 21.2467 6.04259 21V16.5319C6.04259 16.2852 5.84235 16.0851 5.59577 16.0851Z" fill="#ffab00"/>
<path d="M5.59577 25.0213C5.3491 25.0213 5.14894 25.221 5.14894 25.4681V27.7021C5.14894 27.9492 5.3491 28.149 5.59577 28.149C5.84243 28.149 6.04259 27.9492 6.04259 27.7021V25.4681C6.04259 25.221 5.84235 25.0213 5.59577 25.0213Z" fill="#ffab00"/>
<path d="M5.59577 4.91492C5.3491 4.91492 5.14894 5.11507 5.14894 5.36174V9.82982C5.14894 10.0765 5.3491 10.2766 5.59577 10.2766C5.84243 10.2766 6.04259 10.0765 6.04259 9.82982V5.36174C6.04259 5.11507 5.84235 4.91492 5.59577 4.91492Z" fill="#ffab00"/>
<path d="M16.7659 7.14896C16.5193 7.14896 16.3191 7.34911 16.3191 7.59578V18.766C16.3191 19.0126 16.5193 19.2128 16.7659 19.2128C17.0126 19.2128 17.2128 19.0126 17.2128 18.766V7.59578C17.2128 7.34911 17.0126 7.14896 16.7659 7.14896Z" fill="#ffab00"/>
<path d="M14.5319 11.617C14.2853 11.617 14.0851 11.8172 14.0851 12.0638V16.5319C14.0851 16.7786 14.2853 16.9787 14.5319 16.9787C14.7786 16.9787 14.9788 16.7786 14.9788 16.5319V12.0638C14.9788 11.8172 14.7786 11.617 14.5319 11.617Z" fill="#ffab00"/>
<path d="M12.2979 22.7872C12.0512 22.7872 11.8511 22.987 11.8511 23.2341V29.9362C11.8511 30.1832 12.0512 30.383 12.2979 30.383C12.5446 30.383 12.7447 30.1832 12.7447 29.9362V23.2341C12.7447 22.987 12.5446 22.7872 12.2979 22.7872Z" fill="#ffab00"/>
<path d="M14.5319 25.0213C14.2853 25.0213 14.0851 25.221 14.0851 25.4681V36.6383C14.0851 36.8854 14.2853 37.0851 14.5319 37.0851C14.7786 37.0851 14.9788 36.8854 14.9788 36.6383V25.4681C14.9788 25.221 14.7786 25.0213 14.5319 25.0213Z" fill="#ffab00"/>
<path d="M23.4681 2.68085C23.221 2.68085 23.0212 2.881 23.0212 3.12767V7.59575C23.0212 7.84242 23.221 8.04257 23.4681 8.04257C23.7151 8.04257 23.9149 7.84242 23.9149 7.59575V3.12767C23.9149 2.881 23.7151 2.68085 23.4681 2.68085Z" fill="#ffab00"/>
<path d="M25.7021 9.38297C25.455 9.38297 25.2553 9.58312 25.2553 9.82979V23.234C25.2553 23.4811 25.455 23.6809 25.7021 23.6809C25.9492 23.6809 26.1489 23.4811 26.1489 23.234V9.82979C26.1489 9.58312 25.9492 9.38297 25.7021 9.38297Z" fill="#ffab00"/>
<path d="M23.4681 11.617C23.221 11.617 23.0212 11.8172 23.0212 12.0638V14.2979C23.0212 14.5445 23.221 14.7447 23.4681 14.7447C23.7151 14.7447 23.9149 14.5445 23.9149 14.2979V12.0638C23.9149 11.8172 23.7151 11.617 23.4681 11.617Z" fill="#ffab00"/>
<path d="M21.234 16.0851C20.987 16.0851 20.7872 16.2852 20.7872 16.5319V27.7021C20.7872 27.9492 20.987 28.1489 21.234 28.1489C21.4811 28.1489 21.6809 27.9492 21.6809 27.7021V16.5319C21.6809 16.2852 21.4811 16.0851 21.234 16.0851Z" fill="#ffab00"/>
<path d="M30.1702 29.4893C29.9231 29.4893 29.7233 29.6891 29.7233 29.9361V38.8723C29.7233 39.1194 29.9231 39.3191 30.1702 39.3191C30.4172 39.3191 30.617 39.1194 30.617 38.8723V29.9361C30.617 29.6891 30.4172 29.4893 30.1702 29.4893Z" fill="#ffab00"/>
<path d="M32.4042 25.0213C32.1572 25.0213 31.9574 25.221 31.9574 25.4681V34.4043C31.9574 34.6513 32.1572 34.8511 32.4042 34.8511C32.6513 34.8511 32.8511 34.6513 32.8511 34.4043V25.4681C32.8511 25.221 32.6513 25.0213 32.4042 25.0213Z" fill="#ffab00"/>
<path d="M30.1702 11.617C29.9231 11.617 29.7233 11.8172 29.7233 12.0638V14.2979C29.7233 14.5445 29.9231 14.7447 30.1702 14.7447C30.4172 14.7447 30.617 14.5445 30.617 14.2979V12.0638C30.617 11.8172 30.4172 11.617 30.1702 11.617Z" fill="#ffab00"/>
<path d="M34.6383 16.0851C34.3912 16.0851 34.1914 16.2852 34.1914 16.5319V23.234C34.1914 23.4811 34.3912 23.6808 34.6383 23.6808C34.8853 23.6808 35.0851 23.4811 35.0851 23.234V16.5319C35.0851 16.2852 34.8853 16.0851 34.6383 16.0851Z" fill="#ffab00"/>
</svg>